<svg id="Layer_1" data-name="Layer 1" xmlns="http://www.w3.org/2000/svg" viewBox="0 0 931.62 89"><defs><style>.cls-1{fill:#fff;}</style></defs><title>brush</title><path class="cls-1" d="M966.82,582.16l.45.21,1.64.31c2.12-1.48,5.93-.56,10.89.69.08-.53-.29-1.13,1.53-1.12,7.82,2.3,4,.62,9.92.45-1.78-.28-4-.49-4.83-1.16l11.19,1.19c-1.37-1.25-2.45-2.58-.45-3.12-.81-2.23,3.26-4.14,5-6.09A25.59,25.59,0,0,1,998,572c.41-.84,2.39-.93,4.78-.71a2.61,2.61,0,0,0-.63-.76,2.61,2.61,0,0,1,.63.76c1.56.14,3.3.42,4.89.72-.86-.41-1.71-.82-1.2-1.14l-6.75-1c-.18-.23.06-.37.49-.45l-1.83.24,1.26.75c.4.46-.55.59-1.49.72a6.2,6.2,0,0,1-3.05-1l-3.75.37c-1.58,1.39,9.28,2.39,3.23,2.95l-1.74-.67c-2.74,0-6.32-.58-8.28.21-1.2-1.14-3.16-1.07-4.82-1s-3,.09-3.09-1.21c-5.09-1.28-11.08-1.86-17.05-2.63-3-.38-5.95-.84-8.81-1.38a47.65,47.65,0,0,1-8.13-2.17c-2,1.54-2.39,4.88-7.11,6.53-.87-.37-2.2-.79-1.7-1.14l-3.25.59c1.8.2,4.07.31,4.89,1.08-5,.25,2.08,1.72,1.53,2.61l-6.83.19.75.46c6,.94,11.94,2.15,17.87,3.4s11.82,2.77,17.74,4Z" transform="translate(-76 -494.44)"/><path class="cls-1" d="M761.41,535.76l.08,2c-52.42,1.13-113.73.15-178.09-1l-195.87-4.08,3.34-7.46c-34.4,3.7-73.49,4.79-106,8,4.13.71,8.25,1.49,12.39,2.13-5.85,1.79-16.12,2.72-27.21,3-5.55.19-11.28,0-16.76-.23s-10.68-.74-15.17-1.36l2-1.79c24.78,1-1.61-.77,8.84-5.29l4.35-.62-2.42-1.17-4.36.63c.58-1.09.34-2.57,4.4-2.65l-5.67-.69c-11.77-6.34-11.3-11-9.24-16.79-3.23.41-.49,6.6-13.81,3.27l2-1.75L209,511.87l-6.27-3.33c-5.39.59-9,1.48-14.24,0l-2.14,3.73c-6-1-12.39-2.05-19-2.81s-13.52-1.34-20.33-2.27-13.68-1.77-20.3-2.9a166.66,166.66,0,0,1-18.78-4.75,10.16,10.16,0,0,1-5.59.38A52.43,52.43,0,0,1,94.92,498c-5.44-1.66-11.86-3.62-18.92-3.6l4.74,5.46c6.59,4.43,18.57,8.09,32,10.81l10.18,2.13c1.71.37,3.44.67,5.16,1l5.14.93c6.83,1.24,13.43,2.6,19.34,4.08l-1.29,2.1c-5.14-.19-9.1,1-15.16-1.1l-2.32,3.62c4.11,7.72,15.2,9,26.26,8.25,5.52-.32,11-1,15.67-1.44s8.45-.7,10.59.1c9.1,3.06,5.8,4.79,1.31,5.82s-10.15,1.36-5.63,1.64c-5.34.7-7,1.72-6.39,3.06s3.55,2.92,7.41,4.6c7.73,3.32,19.23,7.13,23.41,9.86,5.89,2.93,13.75,5.18,22.73,7A288.41,288.41,0,0,0,258.53,566c10.35.79,21,1.14,31,1.53s19.56.42,27.7.82c27.39-3.58,58.93-2.3,90-.46s61.55,4.68,86.52,4.61c12,.65,27.6-2.85,42.13-4.9s27.94-2.79,35.59,3.37l44.71,2.4-.95,2.27c43.45.67,91.3-4.56,131.73-5.35,17.63,0,23.15-5.76,31,.81a192.93,192.93,0,0,0,27.15,2c9.3.19,18.81-.05,28.31-.47l28.21-1c9.24-.25,18.22-.18,26.74.25,0-2,4.95-3.79-1.27-5.35a76.33,76.33,0,0,1-25.34-2.86c-7.19-2.07-12.23-5-12.38-7.78l6.54.93-11.47-5.16-7.63,1.29c-1.86-1.45-2.67-2.55-2.76-3.42a129.43,129.43,0,0,1-18.43-5.41c-3-1.08-6.05-2.21-9.16-3.29s-6.31-2.1-9.65-3C787.19,538.9,776.32,538.79,761.41,535.76Z" transform="translate(-76 -494.44)"/></svg>